<svg xmlns="http://www.w3.org/2000/svg" width="900" viewBox="0 0 900 265" height="265"><path d="m98.1 62.5c-17.8 0-29.6 6.9-38 17v-44.6-32.9h-58.1v32.9h14.4v168.9h42.3v-14.7c8.4 10.8 20.7 18.4 39.4 18.4 36.7 0 64-31.8 64-72.6 0-40.4-27.3-72.4-64-72.4zm-10.6 104c-17.2 0-29.3-13.3-29.3-31.5s12.1-31.5 29.3-31.5c17.7 0 29.4 13.6 29.4 31.5.1 17.9-11.7 31.5-29.4 31.5z"></path><path d="m314.9 62.5c-43 0-74.6 30.8-74.6 72.4s31.5 72.5 74.6 72.5c43 0 74.7-30.8 74.7-72.5 0-41.5-31.7-72.4-74.7-72.4zm0 104c-17.1 0-29.7-13-29.7-31.5s12.6-31.5 29.7-31.5c17.2 0 29.8 13 29.8 31.5.1 18.5-12.5 31.5-29.8 31.5z"></path><path d="m504.8 80.6c-8.3-10.6-20.3-18.1-38.4-18.1-36.9 0-63.8 30.7-63.8 69.5 0 39 26.9 69.4 63.8 69.4 17.8 0 29.6-6.9 37.8-17.4v8.5c0 21.9-16.7 31.7-34.6 31.7-16.4 0-30.7-4.5-44.1-14l-15.6 34.9c16.5 11.6 39.7 17.5 62.8 17.5 45 0 74.6-26.8 74.6-72v-124.3h-42.5zm-28.1 80.9c-17.2 0-28.9-12.8-28.9-29.4 0-16.8 11.6-29.4 28.9-29.4 16.5 0 28 12.6 28 29.4.1 16.8-11.4 29.4-28 29.4z"></path><path d="m695.9 2h-162.9v43.4h58.1v158.4h46.8v-158.4h58z"></path><path d="m794.6 4c-60.6 0-103.4 43-103.4 101.7s42.8 101.7 103.4 101.7c60.5 0 103.4-43 103.4-101.7s-42.9-101.7-103.4-101.7zm0 158.6c-32 0-54.7-23.3-54.7-56.9s22.7-56.9 54.7-56.9c31.9 0 54.7 23.3 54.7 56.9-.1 33.6-22.8 56.9-54.7 56.9z"></path><path d="m165.1 2v32.9h14.2v168.9h43.9v-168.9-32.9z"></path></svg>