<svg xmlns="http://www.w3.org/2000/svg" width="600.01" viewBox="0 0 600.01 47.1" height="47.1"><path d="m576.2 24.6s-.8-.2-.9.6c0 .4.1.7.5 1 .1.1.2.1.3.1 1.5.1 3.3-2.5 4.5-4.5.5-.9.7-1.2 1-1.2.1 0 .5-.1 1 .8.6 1.1 3.8 4.3 7.8 3.4.2-.4-.6-.7-1-1 0 0-1.7-1.3.5-1.9 2.1-.5 3.2.3 5-1.2.1-.5-1-.7-1-.7s-1.3-.8 2.4-1.9c1.8-.5 1.8-.8 1.5-1s-1.2-.6.1-1.4c1.3-.9 2.2-2 2.1-2.4-.2-.3-.8-.2-1.5.2-.8.4-1.8.2-2.4-.7-.5-.9-1.1-.7-1.8-.2s-2.1 1.3-2.8 0c-.4-1.5-.2-1.1.9-3.2 1.1-2 1.3-3.7 1.3-4s-.2-.5-1.2 0c-.9.2-1-4.2-1-4.8 0 0 0-1.2-.7-.2-.6.7-2.8 2.8-3.5 3.1-.7.2-1.7-.4-1.6-1.3 0-.9-.6-.6-.8 0-.2.5-1.9 5.9-2.3 6.2s-.7 1.1-1.4-.2-2-4.5-3.1-2.9c-.3-.3-2.3-3-4-3.1-.2.3.2 1.1.5 1.3.3.4.3 1.5 0 2.3s-.3 1.8.1 2.8c.2.5-.1 1.3-1.4 1.4-1.3.2-1.1.5-.5 1.3.5.7 2.6 2.4 3.1 3.1.5.6-.1 1.4-1 1.5s-1.8-.2-2.1.3c-.1.5.7.3 1 .8 0 0 1.7 3.1 4 3 2.3-.2 2.4.1 2.1 1.1-.2.6-2 3.3-3.7 3.5m-469.5 14.9c-.9 3-2.4 4.4-4.8 4.4h-9c0-1.5 0-6 .1-10.1 0-2.6.1-7.2.1-7.9h11.4v-3.7h-11.4v-17.9h7c2.4 0 3.5.9 4.2 3.2l2.3 7.8c1-.1 1.9-.1 2.9-.3v-13.1h-29.6v2.4h4.1v39.6h-10.7v-39.6h4.6v-2.4h-18v2.4h4.5v18.1h-13.6v-18.1h4.5v-2.4h-54.8l-.5 13.2c1.1.1 1.9.3 3 .3l2.3-8.4c.7-2.4 1.4-2.8 4.1-2.8h4.6v39.6h-6.2v2.4h21.4v-2.4h-6.3v-39.6h4.8c2.8 0 3.3.6 4 2.8l2.3 8.4c1.1-.1 1.9-.3 3-.3v-10.9h4.8v39.6h-5.1v2.4h18.6v-2.4h-4.5v-18.1h13.5v18.1h-4.5v2.4h51.2l.5-13.7-2.9-.5-1.9 7.5zm39.6-8.7h4.6v12.2c-1.5.5-3.2.9-4.9.9-6.2 0-10.4-4.6-10.4-20.3 0-10.3 2.6-19.5 10.2-19.5 5.5 0 7.5 4.7 9.5 12.2l3.2-.7v-11.8c-1.3-.8-5.5-2.5-12.8-2.5-12.3 0-19.7 12.1-19.7 23.6 0 15 8.6 22.2 19.5 22.2 2.6 0 7.4-1 10.1-2l4.1-.3v-16.3h-13.3zm40.6 8.6c-1.1 3.3-2.4 4.5-4.9 4.5h-6.5c.3-.4.3-4.8.3-39.6h4.9v-2.4h-18.5v2.4h4.6v39.6h-4.8v2.4h29.2l1-14.2c-1-.1-1.8-.1-2.8-.3zm24.1-38.2c-12.8 0-18.4 10.9-18.4 23.4 0 15 7.6 22.4 18.4 22.4 12.8 0 18.5-10.9 18.5-23.4-.1-14.1-7-22.4-18.5-22.4zm0 42.8c-4 0-8.9-3.5-8.9-19.9 0-15 3.6-19.8 8.9-19.8 3.6 0 9 2.4 9 19.9-.1 15.8-4.5 19.8-9 19.8zm44.1-20.4v-.4c4.9-1.4 8.6-6.2 8.6-9.8 0-7.1-4.9-11.5-14.3-11.5h-18.4v2.4h4.7v39.6h-4.7v2.4h18.7c9.4 0 14.9-4.8 14.9-11.7 0-5.3-4-9.8-9.5-11zm-10.4-19.3h4.6c3.3 0 5.9 2.6 5.9 9.8 0 4.3-1.8 8.1-4.9 8.1h-5.6zm5.1 39.6h-4.5c-.6 0-.6-.6-.6-1.5v-17.6h5.2c4.3 0 5.6 4.1 5.6 9.7 0 7.7-2.6 9.4-5.7 9.4zm44-4.4c-.9 3-2.4 4.4-4.7 4.4h-9c0-1.5 0-6 .1-10.1 0-2.6.1-7.2.1-7.9h11.4v-3.7h-11.4v-17.9h7c2.4 0 3.5.9 4.2 3.2l2.3 7.8c1-.1 1.8-.1 2.9-.3v-13.1h-29.5v2.4h4.1v39.6h-5.7v2.4h32.5l.5-13.7-2.9-.6zm109.4-37.6h-30.5v2.4c4.7 0 5.5 1.2 5.5 3.7v22c-5.7-9.4-11.3-18.7-16.9-28.1h-11.7v2.1c1.9.6 3.3 2 4.4 3.5v32c0 3.8-2 4.3-4 4.4h-2.2l-12.9-42h-6.1c-1.7 6.7-11.4 36.9-11.4 36.9-.9 2.8-2.4 5.2-5.3 5.2h-.1v2.3h14.2v-2.4h-.5c-3.9-.3-5.1-.4-5.1-3.2 0-.9.1-1.8.3-3.1l2.3-8h10.8l4.1 14.3h-4.9v2.4h29.7v-2.3c-5.5-.1-5.8-1.6-5.8-4.4v-27.4c6.9 11.4 13.6 22.8 20.5 34.1h3.5v-38.3c0-2.9 1.8-3.6 5-3.7h4.6v39.6h-4.9v2.4h17.9c13.1 0 20.6-10.3 20.6-22.7.1-12.7-8.5-21.7-21.1-21.7zm-79.3 25.3 4.7-16.3 4.7 16.3zm77.4 16.7c-1.1 0-1.5-.7-1.5-2v-37.7c9.4 0 14.5 5.9 14.5 19.8s-4 19.9-13 19.9zm135.8 0v-39.6h4.1v-2.4h-17.9v2.4h4.2v39.6h-7l-12.9-42h-6.1c-1.6 6.7-11.4 36.9-11.4 36.9-.8 2.6-2.2 4.8-4.7 5.1h-3.5l-2.4-39.6h5.1v-2.4h-13.9l-8.4 23.6c-2.8-7.8-5.7-15.8-8.3-23.6h-14.7v2.4c4.6 0 4.9.7 4.9 5.1v.5c-.4 7.9-1.3 22.5-1.9 30.7-.1 1.8-1.6 3.3-5.6 3.5v2.2h15.6v-2.3c-5.6-.1-6.5-2-6.5-3.4 0-.8.2-6.5.4-12.1.3-7.7.5-12.6.8-20.4v.3c3.8 10.6 7.8 21.4 11.5 32l1.4-.7c3.7-10 7.3-19.7 11.1-29.6l1.7 33.7h-4.3v2.4h30.3v-2.4h-.4c-3.9-.3-5.1-.4-5.1-3.2 0-.9.1-1.8.3-3.1l2.3-8h10.9l4.2 14.3h-4.9v2.4h35.2v-2.4h-4.1zm-40.5-16.7 4.7-16.3 4.7 16.3zm74.2 4.6-2.5 7.6c-1.1 3.3-2.4 4.5-4.9 4.5h-6.5c.3-.4.3-4.8.3-39.6h4.9v-2.4h-18.5v2.4h4.6v39.6h-4.8v2.4h29.2l1-14.2c-1-.1-1.8-.1-2.8-.3"></path></svg>