<svg xmlns="http://www.w3.org/2000/svg" viewBox="0 0 389.9 146.7"><path d="m58.3 76.5h12v70.2h-12zm207.2-25-17.8-51h-16.2v70.2h11.5v-51.6l18.1 51.6h15.9v-70.2h-11.5zm-73.9 8.2c12.9 0 23.4-10.8 23.4-24.1s-10.5-24.1-23.4-24.1-23.4 10.8-23.4 24.1 10.5 24.1 23.4 24.1m0-59.7c19.6 0 35.6 16 35.6 35.6s-16 35.6-35.6 35.6-35.6-16-35.6-35.6 16-35.6 35.6-35.6m-177 70.7h12v-59h14.6v-11.2h-41.2v11.2h14.6zm56.5-11c12.9 0 23.4-10.8 23.4-24.1s-10.5-24.1-23.4-24.1-23.4 10.8-23.4 24.1 10.5 24.1 23.4 24.1m35.6-24.1c0 19.6-16 35.6-35.6 35.6s-35.6-16-35.6-35.6 16-35.6 35.6-35.6 35.6 16 35.6 35.6m217.8-35.1h-41.3v11.2h14.6v59h12v-59h14.6v-11.2zm29.8 59.2c12.9 0 23.4-10.8 23.4-24.1s-10.5-24.1-23.4-24.1-23.4 10.8-23.4 24.1 10.5 24.1 23.4 24.1m0-59.7c19.6 0 35.6 16 35.6 35.6s-16 35.6-35.6 35.6-35.6-16-35.6-35.6 16-35.6 35.6-35.6m-276.5 146.7h12v-30.5h25.9v-11.2h-25.9v-17.3h26.7v-11.2h-38.7zm54.5-116.5c6 0 9.5-4.3 9.5-9.4s-3.4-9-9.5-9h-9.3v18.4zm1 11.2h-10.3v29.3h-12v-70.2h22c11.2 0 20.9 8.1 20.9 20.3 0 7.3-3.7 13.9-9.8 17.2l18.2 32.7h-13.8zm-106.6 35.1h-12v70.2h37.8v-11.2h-25.8zm96.3 70.2h42.3v-11.2h-30.3v-19.2h28.2v-11.3h-28.2v-17.3h30.3v-11.2h-42.3z"></path></svg>